# xmcd CD database file
#
# Track frame offsets:
#	187
#	19755
#	41102
#
# Disc length: 804 seconds
#
# Revision: 0
# Processed by: cddbd v1.5PL3 Copyright (c) Steve Scherf et al.
# Submitted via: CDex 1.50beta8
#
DISCID=1e032203
DTITLE=大道寺知世（岩男潤子） - やさしさの種子
DYEAR=1998
DGENRE=Anime
TTITLE0=やさしさの種子
TTITLE1=ミニドラマ「さくらの宿題〜音楽〜」
TTITLE2=やさしさの種子（オリジナル・カラオケ）
EXTD=YEAR: 1998
EXTT0=
EXTT1=
EXTT2=
PLAYORDER=
